%TF.GenerationSoftware,KiCad,Pcbnew,9.0.1*%
%TF.CreationDate,2025-04-23T14:59:06+02:00*%
%TF.ProjectId,GT232B_MICROTEST,47543233-3242-45f4-9d49-43524f544553,rev?*%
%TF.SameCoordinates,Original*%
%TF.FileFunction,Legend,Top*%
%TF.FilePolarity,Positive*%
%FSLAX46Y46*%
G04 Gerber Fmt 4.6, Leading zero omitted, Abs format (unit mm)*
G04 Created by KiCad (PCBNEW 9.0.1) date 2025-04-23 14:59:06*
%MOMM*%
%LPD*%
G01*
G04 APERTURE LIST*
%ADD10C,0.127000*%
%ADD11C,0.100000*%
%ADD12C,0.150000*%
%ADD13C,0.120000*%
G04 APERTURE END LIST*
D10*
X123164600Y-111878600D02*
X150469600Y-111878600D01*
X150469600Y-111878600D02*
X150469600Y-107622600D01*
X150469600Y-107622600D02*
X162915600Y-107622600D01*
X162915600Y-107622600D02*
X162915600Y-107114600D01*
X162915600Y-107114600D02*
X173837600Y-107114600D01*
X173837600Y-107114600D02*
X173837600Y-102542600D01*
X162915600Y-102542600D02*
X173837600Y-102542600D01*
X162915600Y-102542600D02*
X162915600Y-102034600D01*
X150215600Y-102034600D02*
X162915600Y-102034600D01*
X150215600Y-102034600D02*
X150215600Y-98128600D01*
X123164600Y-98128600D02*
X150215600Y-98128600D01*
X123164600Y-111878600D02*
X123164600Y-98128600D01*
D11*
X128375466Y-106701897D02*
X128344514Y-106732850D01*
X128344514Y-106732850D02*
X128251656Y-106763802D01*
X128251656Y-106763802D02*
X128189752Y-106763802D01*
X128189752Y-106763802D02*
X128096895Y-106732850D01*
X128096895Y-106732850D02*
X128034990Y-106670945D01*
X128034990Y-106670945D02*
X128004037Y-106609040D01*
X128004037Y-106609040D02*
X127973085Y-106485230D01*
X127973085Y-106485230D02*
X127973085Y-106392373D01*
X127973085Y-106392373D02*
X128004037Y-106268564D01*
X128004037Y-106268564D02*
X128034990Y-106206659D01*
X128034990Y-106206659D02*
X128096895Y-106144754D01*
X128096895Y-106144754D02*
X128189752Y-106113802D01*
X128189752Y-106113802D02*
X128251656Y-106113802D01*
X128251656Y-106113802D02*
X128344514Y-106144754D01*
X128344514Y-106144754D02*
X128375466Y-106175707D01*
X128994514Y-106763802D02*
X128623085Y-106763802D01*
X128808799Y-106763802D02*
X128808799Y-106113802D01*
X128808799Y-106113802D02*
X128746895Y-106206659D01*
X128746895Y-106206659D02*
X128684990Y-106268564D01*
X128684990Y-106268564D02*
X128623085Y-106299516D01*
X142388561Y-98513802D02*
X142388561Y-99039992D01*
X142388561Y-99039992D02*
X142419514Y-99101897D01*
X142419514Y-99101897D02*
X142450466Y-99132850D01*
X142450466Y-99132850D02*
X142512371Y-99163802D01*
X142512371Y-99163802D02*
X142636180Y-99163802D01*
X142636180Y-99163802D02*
X142698085Y-99132850D01*
X142698085Y-99132850D02*
X142729038Y-99101897D01*
X142729038Y-99101897D02*
X142759990Y-99039992D01*
X142759990Y-99039992D02*
X142759990Y-98513802D01*
X143038561Y-98575707D02*
X143069513Y-98544754D01*
X143069513Y-98544754D02*
X143131418Y-98513802D01*
X143131418Y-98513802D02*
X143286180Y-98513802D01*
X143286180Y-98513802D02*
X143348085Y-98544754D01*
X143348085Y-98544754D02*
X143379037Y-98575707D01*
X143379037Y-98575707D02*
X143409990Y-98637611D01*
X143409990Y-98637611D02*
X143409990Y-98699516D01*
X143409990Y-98699516D02*
X143379037Y-98792373D01*
X143379037Y-98792373D02*
X143007609Y-99163802D01*
X143007609Y-99163802D02*
X143409990Y-99163802D01*
D12*
X131327324Y-103860526D02*
X130903990Y-103255764D01*
X130601609Y-103860526D02*
X130601609Y-102590526D01*
X130601609Y-102590526D02*
X131085419Y-102590526D01*
X131085419Y-102590526D02*
X131206371Y-102651002D01*
X131206371Y-102651002D02*
X131266848Y-102711478D01*
X131266848Y-102711478D02*
X131327324Y-102832430D01*
X131327324Y-102832430D02*
X131327324Y-103013859D01*
X131327324Y-103013859D02*
X131266848Y-103134811D01*
X131266848Y-103134811D02*
X131206371Y-103195288D01*
X131206371Y-103195288D02*
X131085419Y-103255764D01*
X131085419Y-103255764D02*
X130601609Y-103255764D01*
X131690181Y-102590526D02*
X132415895Y-102590526D01*
X132053038Y-103860526D02*
X132053038Y-102590526D01*
X133504467Y-103860526D02*
X132778752Y-103860526D01*
X133141609Y-103860526D02*
X133141609Y-102590526D01*
X133141609Y-102590526D02*
X133020657Y-102771954D01*
X133020657Y-102771954D02*
X132899705Y-102892907D01*
X132899705Y-102892907D02*
X132778752Y-102953383D01*
D11*
X124567133Y-97053802D02*
X124567133Y-97518088D01*
X124567133Y-97518088D02*
X124536180Y-97610945D01*
X124536180Y-97610945D02*
X124474276Y-97672850D01*
X124474276Y-97672850D02*
X124381418Y-97703802D01*
X124381418Y-97703802D02*
X124319514Y-97703802D01*
X125217133Y-97703802D02*
X124845704Y-97703802D01*
X125031418Y-97703802D02*
X125031418Y-97053802D01*
X125031418Y-97053802D02*
X124969514Y-97146659D01*
X124969514Y-97146659D02*
X124907609Y-97208564D01*
X124907609Y-97208564D02*
X124845704Y-97239516D01*
X161209302Y-106709966D02*
X161209302Y-106338537D01*
X161859302Y-106524251D02*
X161209302Y-106524251D01*
X161209302Y-105998061D02*
X161209302Y-105874252D01*
X161209302Y-105874252D02*
X161240254Y-105812347D01*
X161240254Y-105812347D02*
X161302159Y-105750442D01*
X161302159Y-105750442D02*
X161425969Y-105719490D01*
X161425969Y-105719490D02*
X161642635Y-105719490D01*
X161642635Y-105719490D02*
X161766445Y-105750442D01*
X161766445Y-105750442D02*
X161828350Y-105812347D01*
X161828350Y-105812347D02*
X161859302Y-105874252D01*
X161859302Y-105874252D02*
X161859302Y-105998061D01*
X161859302Y-105998061D02*
X161828350Y-106059966D01*
X161828350Y-106059966D02*
X161766445Y-106121871D01*
X161766445Y-106121871D02*
X161642635Y-106152823D01*
X161642635Y-106152823D02*
X161425969Y-106152823D01*
X161425969Y-106152823D02*
X161302159Y-106121871D01*
X161302159Y-106121871D02*
X161240254Y-106059966D01*
X161240254Y-106059966D02*
X161209302Y-105998061D01*
X161209302Y-105440919D02*
X161735492Y-105440919D01*
X161735492Y-105440919D02*
X161797397Y-105409966D01*
X161797397Y-105409966D02*
X161828350Y-105379014D01*
X161828350Y-105379014D02*
X161859302Y-105317109D01*
X161859302Y-105317109D02*
X161859302Y-105193300D01*
X161859302Y-105193300D02*
X161828350Y-105131395D01*
X161828350Y-105131395D02*
X161797397Y-105100442D01*
X161797397Y-105100442D02*
X161735492Y-105069490D01*
X161735492Y-105069490D02*
X161209302Y-105069490D01*
X161797397Y-104388538D02*
X161828350Y-104419490D01*
X161828350Y-104419490D02*
X161859302Y-104512348D01*
X161859302Y-104512348D02*
X161859302Y-104574252D01*
X161859302Y-104574252D02*
X161828350Y-104667109D01*
X161828350Y-104667109D02*
X161766445Y-104729014D01*
X161766445Y-104729014D02*
X161704540Y-104759967D01*
X161704540Y-104759967D02*
X161580730Y-104790919D01*
X161580730Y-104790919D02*
X161487873Y-104790919D01*
X161487873Y-104790919D02*
X161364064Y-104759967D01*
X161364064Y-104759967D02*
X161302159Y-104729014D01*
X161302159Y-104729014D02*
X161240254Y-104667109D01*
X161240254Y-104667109D02*
X161209302Y-104574252D01*
X161209302Y-104574252D02*
X161209302Y-104512348D01*
X161209302Y-104512348D02*
X161240254Y-104419490D01*
X161240254Y-104419490D02*
X161271207Y-104388538D01*
X161859302Y-104109967D02*
X161209302Y-104109967D01*
X161518826Y-104109967D02*
X161518826Y-103738538D01*
X161859302Y-103738538D02*
X161209302Y-103738538D01*
X161271207Y-103459967D02*
X161240254Y-103429015D01*
X161240254Y-103429015D02*
X161209302Y-103367110D01*
X161209302Y-103367110D02*
X161209302Y-103212348D01*
X161209302Y-103212348D02*
X161240254Y-103150443D01*
X161240254Y-103150443D02*
X161271207Y-103119491D01*
X161271207Y-103119491D02*
X161333111Y-103088538D01*
X161333111Y-103088538D02*
X161395016Y-103088538D01*
X161395016Y-103088538D02*
X161487873Y-103119491D01*
X161487873Y-103119491D02*
X161859302Y-103490919D01*
X161859302Y-103490919D02*
X161859302Y-103088538D01*
X167729302Y-106709966D02*
X167729302Y-106338537D01*
X168379302Y-106524251D02*
X167729302Y-106524251D01*
X167729302Y-105998061D02*
X167729302Y-105874252D01*
X167729302Y-105874252D02*
X167760254Y-105812347D01*
X167760254Y-105812347D02*
X167822159Y-105750442D01*
X167822159Y-105750442D02*
X167945969Y-105719490D01*
X167945969Y-105719490D02*
X168162635Y-105719490D01*
X168162635Y-105719490D02*
X168286445Y-105750442D01*
X168286445Y-105750442D02*
X168348350Y-105812347D01*
X168348350Y-105812347D02*
X168379302Y-105874252D01*
X168379302Y-105874252D02*
X168379302Y-105998061D01*
X168379302Y-105998061D02*
X168348350Y-106059966D01*
X168348350Y-106059966D02*
X168286445Y-106121871D01*
X168286445Y-106121871D02*
X168162635Y-106152823D01*
X168162635Y-106152823D02*
X167945969Y-106152823D01*
X167945969Y-106152823D02*
X167822159Y-106121871D01*
X167822159Y-106121871D02*
X167760254Y-106059966D01*
X167760254Y-106059966D02*
X167729302Y-105998061D01*
X167729302Y-105440919D02*
X168255492Y-105440919D01*
X168255492Y-105440919D02*
X168317397Y-105409966D01*
X168317397Y-105409966D02*
X168348350Y-105379014D01*
X168348350Y-105379014D02*
X168379302Y-105317109D01*
X168379302Y-105317109D02*
X168379302Y-105193300D01*
X168379302Y-105193300D02*
X168348350Y-105131395D01*
X168348350Y-105131395D02*
X168317397Y-105100442D01*
X168317397Y-105100442D02*
X168255492Y-105069490D01*
X168255492Y-105069490D02*
X167729302Y-105069490D01*
X168317397Y-104388538D02*
X168348350Y-104419490D01*
X168348350Y-104419490D02*
X168379302Y-104512348D01*
X168379302Y-104512348D02*
X168379302Y-104574252D01*
X168379302Y-104574252D02*
X168348350Y-104667109D01*
X168348350Y-104667109D02*
X168286445Y-104729014D01*
X168286445Y-104729014D02*
X168224540Y-104759967D01*
X168224540Y-104759967D02*
X168100730Y-104790919D01*
X168100730Y-104790919D02*
X168007873Y-104790919D01*
X168007873Y-104790919D02*
X167884064Y-104759967D01*
X167884064Y-104759967D02*
X167822159Y-104729014D01*
X167822159Y-104729014D02*
X167760254Y-104667109D01*
X167760254Y-104667109D02*
X167729302Y-104574252D01*
X167729302Y-104574252D02*
X167729302Y-104512348D01*
X167729302Y-104512348D02*
X167760254Y-104419490D01*
X167760254Y-104419490D02*
X167791207Y-104388538D01*
X168379302Y-104109967D02*
X167729302Y-104109967D01*
X168038826Y-104109967D02*
X168038826Y-103738538D01*
X168379302Y-103738538D02*
X167729302Y-103738538D01*
X168379302Y-103088538D02*
X168379302Y-103459967D01*
X168379302Y-103274253D02*
X167729302Y-103274253D01*
X167729302Y-103274253D02*
X167822159Y-103336157D01*
X167822159Y-103336157D02*
X167884064Y-103398062D01*
X167884064Y-103398062D02*
X167915016Y-103459967D01*
X134910466Y-110698802D02*
X134600942Y-110698802D01*
X134600942Y-110698802D02*
X134600942Y-110048802D01*
X135467609Y-110698802D02*
X135096180Y-110698802D01*
X135281894Y-110698802D02*
X135281894Y-110048802D01*
X135281894Y-110048802D02*
X135219990Y-110141659D01*
X135219990Y-110141659D02*
X135158085Y-110203564D01*
X135158085Y-110203564D02*
X135096180Y-110234516D01*
X136575466Y-107363802D02*
X136358799Y-107054278D01*
X136204037Y-107363802D02*
X136204037Y-106713802D01*
X136204037Y-106713802D02*
X136451656Y-106713802D01*
X136451656Y-106713802D02*
X136513561Y-106744754D01*
X136513561Y-106744754D02*
X136544514Y-106775707D01*
X136544514Y-106775707D02*
X136575466Y-106837611D01*
X136575466Y-106837611D02*
X136575466Y-106930469D01*
X136575466Y-106930469D02*
X136544514Y-106992373D01*
X136544514Y-106992373D02*
X136513561Y-107023326D01*
X136513561Y-107023326D02*
X136451656Y-107054278D01*
X136451656Y-107054278D02*
X136204037Y-107054278D01*
X137132609Y-106930469D02*
X137132609Y-107363802D01*
X136977847Y-106682850D02*
X136823085Y-107147135D01*
X136823085Y-107147135D02*
X137225466Y-107147135D01*
X138275466Y-105163802D02*
X138058799Y-104854278D01*
X137904037Y-105163802D02*
X137904037Y-104513802D01*
X137904037Y-104513802D02*
X138151656Y-104513802D01*
X138151656Y-104513802D02*
X138213561Y-104544754D01*
X138213561Y-104544754D02*
X138244514Y-104575707D01*
X138244514Y-104575707D02*
X138275466Y-104637611D01*
X138275466Y-104637611D02*
X138275466Y-104730469D01*
X138275466Y-104730469D02*
X138244514Y-104792373D01*
X138244514Y-104792373D02*
X138213561Y-104823326D01*
X138213561Y-104823326D02*
X138151656Y-104854278D01*
X138151656Y-104854278D02*
X137904037Y-104854278D01*
X138863561Y-104513802D02*
X138554037Y-104513802D01*
X138554037Y-104513802D02*
X138523085Y-104823326D01*
X138523085Y-104823326D02*
X138554037Y-104792373D01*
X138554037Y-104792373D02*
X138615942Y-104761421D01*
X138615942Y-104761421D02*
X138770704Y-104761421D01*
X138770704Y-104761421D02*
X138832609Y-104792373D01*
X138832609Y-104792373D02*
X138863561Y-104823326D01*
X138863561Y-104823326D02*
X138894514Y-104885230D01*
X138894514Y-104885230D02*
X138894514Y-105039992D01*
X138894514Y-105039992D02*
X138863561Y-105101897D01*
X138863561Y-105101897D02*
X138832609Y-105132850D01*
X138832609Y-105132850D02*
X138770704Y-105163802D01*
X138770704Y-105163802D02*
X138615942Y-105163802D01*
X138615942Y-105163802D02*
X138554037Y-105132850D01*
X138554037Y-105132850D02*
X138523085Y-105101897D01*
X131675466Y-111701897D02*
X131644514Y-111732850D01*
X131644514Y-111732850D02*
X131551656Y-111763802D01*
X131551656Y-111763802D02*
X131489752Y-111763802D01*
X131489752Y-111763802D02*
X131396895Y-111732850D01*
X131396895Y-111732850D02*
X131334990Y-111670945D01*
X131334990Y-111670945D02*
X131304037Y-111609040D01*
X131304037Y-111609040D02*
X131273085Y-111485230D01*
X131273085Y-111485230D02*
X131273085Y-111392373D01*
X131273085Y-111392373D02*
X131304037Y-111268564D01*
X131304037Y-111268564D02*
X131334990Y-111206659D01*
X131334990Y-111206659D02*
X131396895Y-111144754D01*
X131396895Y-111144754D02*
X131489752Y-111113802D01*
X131489752Y-111113802D02*
X131551656Y-111113802D01*
X131551656Y-111113802D02*
X131644514Y-111144754D01*
X131644514Y-111144754D02*
X131675466Y-111175707D01*
X131923085Y-111175707D02*
X131954037Y-111144754D01*
X131954037Y-111144754D02*
X132015942Y-111113802D01*
X132015942Y-111113802D02*
X132170704Y-111113802D01*
X132170704Y-111113802D02*
X132232609Y-111144754D01*
X132232609Y-111144754D02*
X132263561Y-111175707D01*
X132263561Y-111175707D02*
X132294514Y-111237611D01*
X132294514Y-111237611D02*
X132294514Y-111299516D01*
X132294514Y-111299516D02*
X132263561Y-111392373D01*
X132263561Y-111392373D02*
X131892133Y-111763802D01*
X131892133Y-111763802D02*
X132294514Y-111763802D01*
X133275466Y-105601897D02*
X133244514Y-105632850D01*
X133244514Y-105632850D02*
X133151656Y-105663802D01*
X133151656Y-105663802D02*
X133089752Y-105663802D01*
X133089752Y-105663802D02*
X132996895Y-105632850D01*
X132996895Y-105632850D02*
X132934990Y-105570945D01*
X132934990Y-105570945D02*
X132904037Y-105509040D01*
X132904037Y-105509040D02*
X132873085Y-105385230D01*
X132873085Y-105385230D02*
X132873085Y-105292373D01*
X132873085Y-105292373D02*
X132904037Y-105168564D01*
X132904037Y-105168564D02*
X132934990Y-105106659D01*
X132934990Y-105106659D02*
X132996895Y-105044754D01*
X132996895Y-105044754D02*
X133089752Y-105013802D01*
X133089752Y-105013802D02*
X133151656Y-105013802D01*
X133151656Y-105013802D02*
X133244514Y-105044754D01*
X133244514Y-105044754D02*
X133275466Y-105075707D01*
X133492133Y-105013802D02*
X133894514Y-105013802D01*
X133894514Y-105013802D02*
X133677847Y-105261421D01*
X133677847Y-105261421D02*
X133770704Y-105261421D01*
X133770704Y-105261421D02*
X133832609Y-105292373D01*
X133832609Y-105292373D02*
X133863561Y-105323326D01*
X133863561Y-105323326D02*
X133894514Y-105385230D01*
X133894514Y-105385230D02*
X133894514Y-105539992D01*
X133894514Y-105539992D02*
X133863561Y-105601897D01*
X133863561Y-105601897D02*
X133832609Y-105632850D01*
X133832609Y-105632850D02*
X133770704Y-105663802D01*
X133770704Y-105663802D02*
X133584990Y-105663802D01*
X133584990Y-105663802D02*
X133523085Y-105632850D01*
X133523085Y-105632850D02*
X133492133Y-105601897D01*
X137975466Y-99101897D02*
X137944514Y-99132850D01*
X137944514Y-99132850D02*
X137851656Y-99163802D01*
X137851656Y-99163802D02*
X137789752Y-99163802D01*
X137789752Y-99163802D02*
X137696895Y-99132850D01*
X137696895Y-99132850D02*
X137634990Y-99070945D01*
X137634990Y-99070945D02*
X137604037Y-99009040D01*
X137604037Y-99009040D02*
X137573085Y-98885230D01*
X137573085Y-98885230D02*
X137573085Y-98792373D01*
X137573085Y-98792373D02*
X137604037Y-98668564D01*
X137604037Y-98668564D02*
X137634990Y-98606659D01*
X137634990Y-98606659D02*
X137696895Y-98544754D01*
X137696895Y-98544754D02*
X137789752Y-98513802D01*
X137789752Y-98513802D02*
X137851656Y-98513802D01*
X137851656Y-98513802D02*
X137944514Y-98544754D01*
X137944514Y-98544754D02*
X137975466Y-98575707D01*
X138532609Y-98730469D02*
X138532609Y-99163802D01*
X138377847Y-98482850D02*
X138223085Y-98947135D01*
X138223085Y-98947135D02*
X138625466Y-98947135D01*
X149217397Y-110076633D02*
X149248350Y-110107585D01*
X149248350Y-110107585D02*
X149279302Y-110200443D01*
X149279302Y-110200443D02*
X149279302Y-110262347D01*
X149279302Y-110262347D02*
X149248350Y-110355204D01*
X149248350Y-110355204D02*
X149186445Y-110417109D01*
X149186445Y-110417109D02*
X149124540Y-110448062D01*
X149124540Y-110448062D02*
X149000730Y-110479014D01*
X149000730Y-110479014D02*
X148907873Y-110479014D01*
X148907873Y-110479014D02*
X148784064Y-110448062D01*
X148784064Y-110448062D02*
X148722159Y-110417109D01*
X148722159Y-110417109D02*
X148660254Y-110355204D01*
X148660254Y-110355204D02*
X148629302Y-110262347D01*
X148629302Y-110262347D02*
X148629302Y-110200443D01*
X148629302Y-110200443D02*
X148660254Y-110107585D01*
X148660254Y-110107585D02*
X148691207Y-110076633D01*
X148629302Y-109488538D02*
X148629302Y-109798062D01*
X148629302Y-109798062D02*
X148938826Y-109829014D01*
X148938826Y-109829014D02*
X148907873Y-109798062D01*
X148907873Y-109798062D02*
X148876921Y-109736157D01*
X148876921Y-109736157D02*
X148876921Y-109581395D01*
X148876921Y-109581395D02*
X148907873Y-109519490D01*
X148907873Y-109519490D02*
X148938826Y-109488538D01*
X148938826Y-109488538D02*
X149000730Y-109457585D01*
X149000730Y-109457585D02*
X149155492Y-109457585D01*
X149155492Y-109457585D02*
X149217397Y-109488538D01*
X149217397Y-109488538D02*
X149248350Y-109519490D01*
X149248350Y-109519490D02*
X149279302Y-109581395D01*
X149279302Y-109581395D02*
X149279302Y-109736157D01*
X149279302Y-109736157D02*
X149248350Y-109798062D01*
X149248350Y-109798062D02*
X149217397Y-109829014D01*
X129175466Y-103263802D02*
X128958799Y-102954278D01*
X128804037Y-103263802D02*
X128804037Y-102613802D01*
X128804037Y-102613802D02*
X129051656Y-102613802D01*
X129051656Y-102613802D02*
X129113561Y-102644754D01*
X129113561Y-102644754D02*
X129144514Y-102675707D01*
X129144514Y-102675707D02*
X129175466Y-102737611D01*
X129175466Y-102737611D02*
X129175466Y-102830469D01*
X129175466Y-102830469D02*
X129144514Y-102892373D01*
X129144514Y-102892373D02*
X129113561Y-102923326D01*
X129113561Y-102923326D02*
X129051656Y-102954278D01*
X129051656Y-102954278D02*
X128804037Y-102954278D01*
X129794514Y-103263802D02*
X129423085Y-103263802D01*
X129608799Y-103263802D02*
X129608799Y-102613802D01*
X129608799Y-102613802D02*
X129546895Y-102706659D01*
X129546895Y-102706659D02*
X129484990Y-102768564D01*
X129484990Y-102768564D02*
X129423085Y-102799516D01*
X129175466Y-99163802D02*
X128958799Y-98854278D01*
X128804037Y-99163802D02*
X128804037Y-98513802D01*
X128804037Y-98513802D02*
X129051656Y-98513802D01*
X129051656Y-98513802D02*
X129113561Y-98544754D01*
X129113561Y-98544754D02*
X129144514Y-98575707D01*
X129144514Y-98575707D02*
X129175466Y-98637611D01*
X129175466Y-98637611D02*
X129175466Y-98730469D01*
X129175466Y-98730469D02*
X129144514Y-98792373D01*
X129144514Y-98792373D02*
X129113561Y-98823326D01*
X129113561Y-98823326D02*
X129051656Y-98854278D01*
X129051656Y-98854278D02*
X128804037Y-98854278D01*
X129423085Y-98575707D02*
X129454037Y-98544754D01*
X129454037Y-98544754D02*
X129515942Y-98513802D01*
X129515942Y-98513802D02*
X129670704Y-98513802D01*
X129670704Y-98513802D02*
X129732609Y-98544754D01*
X129732609Y-98544754D02*
X129763561Y-98575707D01*
X129763561Y-98575707D02*
X129794514Y-98637611D01*
X129794514Y-98637611D02*
X129794514Y-98699516D01*
X129794514Y-98699516D02*
X129763561Y-98792373D01*
X129763561Y-98792373D02*
X129392133Y-99163802D01*
X129392133Y-99163802D02*
X129794514Y-99163802D01*
X133565466Y-101513802D02*
X133348799Y-101204278D01*
X133194037Y-101513802D02*
X133194037Y-100863802D01*
X133194037Y-100863802D02*
X133441656Y-100863802D01*
X133441656Y-100863802D02*
X133503561Y-100894754D01*
X133503561Y-100894754D02*
X133534514Y-100925707D01*
X133534514Y-100925707D02*
X133565466Y-100987611D01*
X133565466Y-100987611D02*
X133565466Y-101080469D01*
X133565466Y-101080469D02*
X133534514Y-101142373D01*
X133534514Y-101142373D02*
X133503561Y-101173326D01*
X133503561Y-101173326D02*
X133441656Y-101204278D01*
X133441656Y-101204278D02*
X133194037Y-101204278D01*
X133782133Y-100863802D02*
X134184514Y-100863802D01*
X134184514Y-100863802D02*
X133967847Y-101111421D01*
X133967847Y-101111421D02*
X134060704Y-101111421D01*
X134060704Y-101111421D02*
X134122609Y-101142373D01*
X134122609Y-101142373D02*
X134153561Y-101173326D01*
X134153561Y-101173326D02*
X134184514Y-101235230D01*
X134184514Y-101235230D02*
X134184514Y-101389992D01*
X134184514Y-101389992D02*
X134153561Y-101451897D01*
X134153561Y-101451897D02*
X134122609Y-101482850D01*
X134122609Y-101482850D02*
X134060704Y-101513802D01*
X134060704Y-101513802D02*
X133874990Y-101513802D01*
X133874990Y-101513802D02*
X133813085Y-101482850D01*
X133813085Y-101482850D02*
X133782133Y-101451897D01*
X130988561Y-100313802D02*
X130988561Y-100839992D01*
X130988561Y-100839992D02*
X131019514Y-100901897D01*
X131019514Y-100901897D02*
X131050466Y-100932850D01*
X131050466Y-100932850D02*
X131112371Y-100963802D01*
X131112371Y-100963802D02*
X131236180Y-100963802D01*
X131236180Y-100963802D02*
X131298085Y-100932850D01*
X131298085Y-100932850D02*
X131329038Y-100901897D01*
X131329038Y-100901897D02*
X131359990Y-100839992D01*
X131359990Y-100839992D02*
X131359990Y-100313802D01*
X132009990Y-100963802D02*
X131638561Y-100963802D01*
X131824275Y-100963802D02*
X131824275Y-100313802D01*
X131824275Y-100313802D02*
X131762371Y-100406659D01*
X131762371Y-100406659D02*
X131700466Y-100468564D01*
X131700466Y-100468564D02*
X131638561Y-100499516D01*
D13*
%TO.C,C1*%
X129953800Y-110024552D02*
X129953800Y-108602048D01*
X127233800Y-110024552D02*
X127233800Y-108602048D01*
%TO.C,U2*%
X148678800Y-108298300D02*
X148198800Y-108298300D01*
X148438800Y-107968300D01*
X148678800Y-108298300D01*
G36*
X148678800Y-108298300D02*
G01*
X148198800Y-108298300D01*
X148438800Y-107968300D01*
X148678800Y-108298300D01*
G37*
X145738800Y-99163300D02*
X143788800Y-99163300D01*
X145738800Y-99163300D02*
X147688800Y-99163300D01*
X145738800Y-108033300D02*
X143788800Y-108033300D01*
X145738800Y-108033300D02*
X147688800Y-108033300D01*
%TO.C,J1*%
X123403800Y-98408300D02*
X124783800Y-98408300D01*
X123403800Y-99788300D02*
X123403800Y-98408300D01*
X123403800Y-101058300D02*
X123403800Y-111328300D01*
X123403800Y-101058300D02*
X126163800Y-101058300D01*
X123403800Y-111328300D02*
X126163800Y-111328300D01*
X126163800Y-101058300D02*
X126163800Y-111328300D01*
%TO.C,L1*%
X138753800Y-107653300D02*
X140253800Y-107653300D01*
X137253800Y-110973300D02*
X140253800Y-110973300D01*
%TO.C,R4*%
X137371300Y-104613576D02*
X137371300Y-105123024D01*
X136326300Y-104613576D02*
X136326300Y-105123024D01*
%TO.C,R5*%
X139134076Y-105615800D02*
X139643524Y-105615800D01*
X139134076Y-106660800D02*
X139643524Y-106660800D01*
%TO.C,C2*%
X131033800Y-109574552D02*
X131033800Y-109052048D01*
X132503800Y-109574552D02*
X132503800Y-109052048D01*
%TO.C,C3*%
X135453800Y-106627033D02*
X135453800Y-106919567D01*
X134433800Y-106627033D02*
X134433800Y-106919567D01*
%TO.C,C4*%
X137407548Y-99698300D02*
X138830052Y-99698300D01*
X137407548Y-102418300D02*
X138830052Y-102418300D01*
%TO.C,C5*%
X145027548Y-109038300D02*
X146450052Y-109038300D01*
X145027548Y-110858300D02*
X146450052Y-110858300D01*
%TO.C,R1*%
X128706300Y-105123024D02*
X128706300Y-104613576D01*
X129751300Y-105123024D02*
X129751300Y-104613576D01*
%TO.C,R2*%
X129751300Y-100803576D02*
X129751300Y-101313024D01*
X128706300Y-100803576D02*
X128706300Y-101313024D01*
%TO.C,R3*%
X133928524Y-100310800D02*
X133419076Y-100310800D01*
X133928524Y-99265800D02*
X133419076Y-99265800D01*
%TO.C,U1*%
X133673800Y-104523300D02*
X134473800Y-104523300D01*
X133673800Y-104523300D02*
X132873800Y-104523300D01*
X133673800Y-101403300D02*
X134473800Y-101403300D01*
X133673800Y-101403300D02*
X132873800Y-101403300D01*
X135213800Y-104803300D02*
X134733800Y-104803300D01*
X134973800Y-104473300D01*
X135213800Y-104803300D01*
G36*
X135213800Y-104803300D02*
G01*
X134733800Y-104803300D01*
X134973800Y-104473300D01*
X135213800Y-104803300D01*
G37*
%TD*%
M02*
