%TF.GenerationSoftware,KiCad,Pcbnew,9.0.1*%
%TF.CreationDate,2025-04-23T14:59:06+02:00*%
%TF.ProjectId,GT232B_MICROTEST,47543233-3242-45f4-9d49-43524f544553,rev?*%
%TF.SameCoordinates,Original*%
%TF.FileFunction,Soldermask,Top*%
%TF.FilePolarity,Negative*%
%FSLAX46Y46*%
G04 Gerber Fmt 4.6, Leading zero omitted, Abs format (unit mm)*
G04 Created by KiCad (PCBNEW 9.0.1) date 2025-04-23 14:59:06*
%MOMM*%
%LPD*%
G01*
G04 APERTURE LIST*
G04 Aperture macros list*
%AMRoundRect*
0 Rectangle with rounded corners*
0 $1 Rounding radius*
0 $2 $3 $4 $5 $6 $7 $8 $9 X,Y pos of 4 corners*
0 Add a 4 corners polygon primitive as box body*
4,1,4,$2,$3,$4,$5,$6,$7,$8,$9,$2,$3,0*
0 Add four circle primitives for the rounded corners*
1,1,$1+$1,$2,$3*
1,1,$1+$1,$4,$5*
1,1,$1+$1,$6,$7*
1,1,$1+$1,$8,$9*
0 Add four rect primitives between the rounded corners*
20,1,$1+$1,$2,$3,$4,$5,0*
20,1,$1+$1,$4,$5,$6,$7,0*
20,1,$1+$1,$6,$7,$8,$9,0*
20,1,$1+$1,$8,$9,$2,$3,0*%
G04 Aperture macros list end*
%ADD10RoundRect,0.288339X1.163261X-0.475761X1.163261X0.475761X-1.163261X0.475761X-1.163261X-0.475761X0*%
%ADD11RoundRect,0.200800X0.875800X0.200800X-0.875800X0.200800X-0.875800X-0.200800X0.875800X-0.200800X0*%
%ADD12C,1.727200*%
%ADD13O,2.203200X1.503200*%
%ADD14RoundRect,0.101600X-0.850000X-0.850000X0.850000X-0.850000X0.850000X0.850000X-0.850000X0.850000X0*%
%ADD15C,1.903200*%
%ADD16RoundRect,0.212900X-2.388700X-0.638700X2.388700X-0.638700X2.388700X0.638700X-2.388700X0.638700X0*%
%ADD17RoundRect,0.525400X-2.076200X-1.576200X2.076200X-1.576200X2.076200X1.576200X-2.076200X1.576200X0*%
%ADD18RoundRect,0.101600X-1.000000X-1.400000X1.000000X-1.400000X1.000000X1.400000X-1.000000X1.400000X0*%
%ADD19RoundRect,0.288300X-0.288300X0.300800X-0.288300X-0.300800X0.288300X-0.300800X0.288300X0.300800X0*%
%ADD20RoundRect,0.288300X-0.300800X-0.288300X0.300800X-0.288300X0.300800X0.288300X-0.300800X0.288300X0*%
%ADD21RoundRect,0.293234X0.533366X-0.395866X0.533366X0.395866X-0.533366X0.395866X-0.533366X-0.395866X0*%
%ADD22RoundRect,0.288300X-0.288300X0.350800X-0.288300X-0.350800X0.288300X-0.350800X0.288300X0.350800X0*%
%ADD23RoundRect,0.288339X-0.475761X-1.163261X0.475761X-1.163261X0.475761X1.163261X-0.475761X1.163261X0*%
%ADD24RoundRect,0.288339X-0.475761X-0.713261X0.475761X-0.713261X0.475761X0.713261X-0.475761X0.713261X0*%
%ADD25RoundRect,0.288300X0.288300X-0.300800X0.288300X0.300800X-0.288300X0.300800X-0.288300X-0.300800X0*%
%ADD26RoundRect,0.288300X0.300800X0.288300X-0.300800X0.288300X-0.300800X-0.288300X0.300800X-0.288300X0*%
%ADD27RoundRect,0.200800X0.563300X0.200800X-0.563300X0.200800X-0.563300X-0.200800X0.563300X-0.200800X0*%
G04 APERTURE END LIST*
D10*
%TO.C,C1*%
X128593800Y-107750800D03*
X128593800Y-110875800D03*
%TD*%
D11*
%TO.C,U2*%
X143263800Y-107408300D03*
X143263800Y-106138300D03*
X143263800Y-104868300D03*
X143263800Y-103598300D03*
X143263800Y-102328300D03*
X143263800Y-101058300D03*
X143263800Y-99788300D03*
X148213800Y-99788300D03*
X148213800Y-101058300D03*
X148213800Y-102328300D03*
X148213800Y-103598300D03*
X148213800Y-104868300D03*
X148213800Y-106138300D03*
X148213800Y-107408300D03*
%TD*%
D12*
%TO.C,RT1*%
X139642800Y-103915800D03*
X132022800Y-106455800D03*
D13*
X126942800Y-103915800D03*
%TD*%
D14*
%TO.C,J1*%
X124783800Y-99788300D03*
D15*
X124783800Y-102328300D03*
X124783800Y-104868300D03*
X124783800Y-107408300D03*
X124783800Y-109948300D03*
%TD*%
D16*
%TO.C,TOUCH2*%
X164788800Y-106138300D03*
%TD*%
%TO.C,TOUCH2*%
X164788800Y-103598300D03*
%TD*%
D17*
%TO.C,TOUCH1*%
X171138800Y-104868300D03*
%TD*%
D18*
%TO.C,L1*%
X140531800Y-109313300D03*
X136975800Y-109313300D03*
%TD*%
D19*
%TO.C,R4*%
X136848800Y-103955800D03*
X136848800Y-105780800D03*
%TD*%
D20*
%TO.C,R5*%
X138476300Y-106138300D03*
X140301300Y-106138300D03*
%TD*%
D21*
%TO.C,C2*%
X131768800Y-110350800D03*
X131768800Y-108275800D03*
%TD*%
D22*
%TO.C,C3*%
X134943800Y-105910800D03*
X134943800Y-107635800D03*
%TD*%
D23*
%TO.C,C4*%
X136556300Y-101058300D03*
X139681300Y-101058300D03*
%TD*%
D24*
%TO.C,C5*%
X144176300Y-109948300D03*
X147301300Y-109948300D03*
%TD*%
D25*
%TO.C,R1*%
X129228800Y-105780800D03*
X129228800Y-103955800D03*
%TD*%
D19*
%TO.C,R2*%
X129228800Y-100145800D03*
X129228800Y-101970800D03*
%TD*%
D26*
%TO.C,R3*%
X134586300Y-99788300D03*
X132761300Y-99788300D03*
%TD*%
D27*
%TO.C,U1*%
X134811300Y-103913300D03*
X134811300Y-102963300D03*
X134811300Y-102013300D03*
X132536300Y-102013300D03*
X132536300Y-102963300D03*
X132536300Y-103913300D03*
%TD*%
M02*
