%TF.GenerationSoftware,KiCad,Pcbnew,9.0.1*%
%TF.CreationDate,2025-04-23T14:59:06+02:00*%
%TF.ProjectId,GT232B_MICROTEST,47543233-3242-45f4-9d49-43524f544553,rev?*%
%TF.SameCoordinates,Original*%
%TF.FileFunction,Copper,L2,Bot*%
%TF.FilePolarity,Positive*%
%FSLAX46Y46*%
G04 Gerber Fmt 4.6, Leading zero omitted, Abs format (unit mm)*
G04 Created by KiCad (PCBNEW 9.0.1) date 2025-04-23 14:59:06*
%MOMM*%
%LPD*%
G01*
G04 APERTURE LIST*
G04 Aperture macros list*
%AMRoundRect*
0 Rectangle with rounded corners*
0 $1 Rounding radius*
0 $2 $3 $4 $5 $6 $7 $8 $9 X,Y pos of 4 corners*
0 Add a 4 corners polygon primitive as box body*
4,1,4,$2,$3,$4,$5,$6,$7,$8,$9,$2,$3,0*
0 Add four circle primitives for the rounded corners*
1,1,$1+$1,$2,$3*
1,1,$1+$1,$4,$5*
1,1,$1+$1,$6,$7*
1,1,$1+$1,$8,$9*
0 Add four rect primitives between the rounded corners*
20,1,$1+$1,$2,$3,$4,$5,0*
20,1,$1+$1,$4,$5,$6,$7,0*
20,1,$1+$1,$6,$7,$8,$9,0*
20,1,$1+$1,$8,$9,$2,$3,0*%
G04 Aperture macros list end*
%TA.AperFunction,SMDPad,CuDef*%
%ADD10RoundRect,0.237500X-0.250000X-0.237500X0.250000X-0.237500X0.250000X0.237500X-0.250000X0.237500X0*%
%TD*%
%TA.AperFunction,ComponentPad*%
%ADD11C,1.524000*%
%TD*%
%TA.AperFunction,ComponentPad*%
%ADD12O,2.000000X1.300000*%
%TD*%
%TA.AperFunction,ComponentPad*%
%ADD13R,1.700000X1.700000*%
%TD*%
%TA.AperFunction,ComponentPad*%
%ADD14C,1.700000*%
%TD*%
%TA.AperFunction,ComponentPad*%
%ADD15RoundRect,0.187500X-2.312500X-0.562500X2.312500X-0.562500X2.312500X0.562500X-2.312500X0.562500X0*%
%TD*%
%TA.AperFunction,ComponentPad*%
%ADD16RoundRect,0.500000X-2.000000X-1.500000X2.000000X-1.500000X2.000000X1.500000X-2.000000X1.500000X0*%
%TD*%
%TA.AperFunction,ViaPad*%
%ADD17C,0.600000*%
%TD*%
%TA.AperFunction,Conductor*%
%ADD18C,0.508000*%
%TD*%
%TA.AperFunction,Conductor*%
%ADD19C,0.254000*%
%TD*%
%TA.AperFunction,Conductor*%
%ADD20C,0.200000*%
%TD*%
G04 APERTURE END LIST*
D10*
%TO.P,R6,1*%
%TO.N,GND*%
X157883800Y-106773300D03*
%TO.P,R6,2*%
%TO.N,/TOUCH2*%
X159708800Y-106773300D03*
%TD*%
D11*
%TO.P,RT1,1,1*%
%TO.N,5V*%
X139642800Y-103915800D03*
%TO.P,RT1,2,2*%
%TO.N,/POT*%
X132022800Y-106455800D03*
D12*
%TO.P,RT1,3,3*%
%TO.N,GND*%
X126942800Y-103915800D03*
%TD*%
D13*
%TO.P,J1,1,Pin_1*%
%TO.N,/TX*%
X124783800Y-99788300D03*
D14*
%TO.P,J1,2,Pin_2*%
%TO.N,/RX*%
X124783800Y-102328300D03*
%TO.P,J1,3,Pin_3*%
%TO.N,/UPDI*%
X124783800Y-104868300D03*
%TO.P,J1,4,Pin_4*%
%TO.N,12V*%
X124783800Y-107408300D03*
%TO.P,J1,5,Pin_5*%
%TO.N,GND*%
X124783800Y-109948300D03*
%TD*%
D15*
%TO.P,TOUCH2,1,1*%
%TO.N,/TOUCH2*%
X164788800Y-106138300D03*
%TD*%
%TO.P,TOUCH2,1,1*%
%TO.N,/TOUCH2*%
X164788800Y-103598300D03*
%TD*%
D16*
%TO.P,TOUCH1,1,1*%
%TO.N,/TOUCH1*%
X171138800Y-104868300D03*
%TD*%
D17*
%TO.N,Net-(U1-FB)*%
X137610800Y-103955800D03*
X134811300Y-100931300D03*
%TO.N,GND*%
X127450800Y-100804300D03*
%TO.N,/UPDI*%
X144849800Y-102328300D03*
%TO.N,GND*%
X142648050Y-109651550D03*
%TO.N,5V*%
X148213800Y-109035800D03*
%TO.N,/RX*%
X145738800Y-101058300D03*
%TO.N,/TX*%
X145738800Y-99788300D03*
%TD*%
D18*
%TO.N,GND*%
X150472065Y-106900300D02*
X157930800Y-106900300D01*
X148532800Y-111091300D02*
X149421800Y-110202300D01*
X149421800Y-110202300D02*
X149421800Y-107950565D01*
X149421800Y-107950565D02*
X150472065Y-106900300D01*
X144087800Y-111091300D02*
X148532800Y-111091300D01*
X142648050Y-109651550D02*
X144087800Y-111091300D01*
%TO.N,/TOUCH2*%
X161359800Y-106900300D02*
X159708800Y-106900300D01*
X162121800Y-106138300D02*
X161359800Y-106900300D01*
X164788800Y-106138300D02*
X162121800Y-106138300D01*
%TO.N,Net-(U1-FB)*%
X136721800Y-100931300D02*
X134811300Y-100931300D01*
X137610800Y-101820300D02*
X136721800Y-100931300D01*
X137610800Y-103955800D02*
X137610800Y-101820300D01*
%TO.N,GND*%
X140930000Y-111369600D02*
X126205100Y-111369600D01*
X142648050Y-109651550D02*
X140930000Y-111369600D01*
X126205100Y-111369600D02*
X124783800Y-109948300D01*
D19*
%TO.N,/TX*%
X125815500Y-98756600D02*
X124783800Y-99788300D01*
X145738800Y-99788300D02*
X144707100Y-98756600D01*
D18*
%TO.N,GND*%
X126942800Y-102963300D02*
X126942800Y-103915800D01*
X127450800Y-102455300D02*
X126942800Y-102963300D01*
X127450800Y-100804300D02*
X127450800Y-102455300D01*
D19*
%TO.N,/RX*%
X143892100Y-99211600D02*
X145738800Y-101058300D01*
X126106800Y-99608300D02*
X126503500Y-99211600D01*
X126106800Y-100821300D02*
X126106800Y-99608300D01*
X124783800Y-102328300D02*
X124783800Y-102144300D01*
X124783800Y-102144300D02*
X126106800Y-100821300D01*
%TO.N,/UPDI*%
X143585100Y-99666600D02*
X144849800Y-100931300D01*
X144849800Y-100931300D02*
X144849800Y-102328300D01*
X126937500Y-99666600D02*
X143585100Y-99666600D01*
X124783800Y-104106300D02*
X126561800Y-102328300D01*
X126561800Y-102328300D02*
X126561800Y-100042300D01*
X126561800Y-100042300D02*
X126937500Y-99666600D01*
X124783800Y-104868300D02*
X124783800Y-104106300D01*
D18*
%TO.N,GND*%
X124783800Y-109948300D02*
X126942800Y-107789300D01*
X126942800Y-107789300D02*
X126942800Y-103915800D01*
%TO.N,5V*%
X148213800Y-106327300D02*
X145802300Y-103915800D01*
X148213800Y-109035800D02*
X148213800Y-106327300D01*
X145802300Y-103915800D02*
X139642800Y-103915800D01*
D20*
%TO.N,/TOUCH2*%
X164788800Y-103598300D02*
X164788800Y-106138300D01*
D19*
%TO.N,/RX*%
X126503500Y-99211600D02*
X143892100Y-99211600D01*
%TO.N,/TX*%
X144707100Y-98756600D02*
X125815500Y-98756600D01*
%TD*%
M02*
