%TF.GenerationSoftware,KiCad,Pcbnew,9.0.1*%
%TF.CreationDate,2025-04-23T14:59:06+02:00*%
%TF.ProjectId,GT232B_MICROTEST,47543233-3242-45f4-9d49-43524f544553,rev?*%
%TF.SameCoordinates,Original*%
%TF.FileFunction,Legend,Bot*%
%TF.FilePolarity,Positive*%
%FSLAX46Y46*%
G04 Gerber Fmt 4.6, Leading zero omitted, Abs format (unit mm)*
G04 Created by KiCad (PCBNEW 9.0.1) date 2025-04-23 14:59:06*
%MOMM*%
%LPD*%
G01*
G04 APERTURE LIST*
%ADD10C,0.100000*%
%ADD11C,0.120000*%
%ADD12C,0.127000*%
G04 APERTURE END LIST*
D10*
X158992133Y-105763802D02*
X159208800Y-105454278D01*
X159363562Y-105763802D02*
X159363562Y-105113802D01*
X159363562Y-105113802D02*
X159115943Y-105113802D01*
X159115943Y-105113802D02*
X159054038Y-105144754D01*
X159054038Y-105144754D02*
X159023085Y-105175707D01*
X159023085Y-105175707D02*
X158992133Y-105237611D01*
X158992133Y-105237611D02*
X158992133Y-105330469D01*
X158992133Y-105330469D02*
X159023085Y-105392373D01*
X159023085Y-105392373D02*
X159054038Y-105423326D01*
X159054038Y-105423326D02*
X159115943Y-105454278D01*
X159115943Y-105454278D02*
X159363562Y-105454278D01*
X158434990Y-105113802D02*
X158558800Y-105113802D01*
X158558800Y-105113802D02*
X158620704Y-105144754D01*
X158620704Y-105144754D02*
X158651657Y-105175707D01*
X158651657Y-105175707D02*
X158713562Y-105268564D01*
X158713562Y-105268564D02*
X158744514Y-105392373D01*
X158744514Y-105392373D02*
X158744514Y-105639992D01*
X158744514Y-105639992D02*
X158713562Y-105701897D01*
X158713562Y-105701897D02*
X158682609Y-105732850D01*
X158682609Y-105732850D02*
X158620704Y-105763802D01*
X158620704Y-105763802D02*
X158496895Y-105763802D01*
X158496895Y-105763802D02*
X158434990Y-105732850D01*
X158434990Y-105732850D02*
X158404038Y-105701897D01*
X158404038Y-105701897D02*
X158373085Y-105639992D01*
X158373085Y-105639992D02*
X158373085Y-105485230D01*
X158373085Y-105485230D02*
X158404038Y-105423326D01*
X158404038Y-105423326D02*
X158434990Y-105392373D01*
X158434990Y-105392373D02*
X158496895Y-105361421D01*
X158496895Y-105361421D02*
X158620704Y-105361421D01*
X158620704Y-105361421D02*
X158682609Y-105392373D01*
X158682609Y-105392373D02*
X158713562Y-105423326D01*
X158713562Y-105423326D02*
X158744514Y-105485230D01*
D11*
%TO.C,R6*%
X158541576Y-107295800D02*
X159051024Y-107295800D01*
X158541576Y-106250800D02*
X159051024Y-106250800D01*
D12*
%TO.C,RT1*%
X142817800Y-107344800D02*
X142817800Y-102391800D01*
X123767800Y-102391800D02*
X142817800Y-102391800D01*
X123767800Y-107344800D02*
X123767800Y-102391800D01*
X123767800Y-107344800D02*
X131006800Y-107344800D01*
X132911800Y-107344800D02*
X142817800Y-107344800D01*
X121989800Y-105947800D02*
X123767800Y-105947800D01*
X121989800Y-105947800D02*
X121989800Y-105312800D01*
X121989800Y-105312800D02*
X122624800Y-105312800D01*
X122624800Y-105312800D02*
X122624800Y-104677800D01*
X121989800Y-104677800D02*
X122624800Y-104677800D01*
X121989800Y-104677800D02*
X121989800Y-104042800D01*
X121989800Y-104042800D02*
X123767800Y-104042800D01*
%TD*%
M02*
