%TF.GenerationSoftware,KiCad,Pcbnew,9.0.1*%
%TF.CreationDate,2025-04-23T14:59:06+02:00*%
%TF.ProjectId,GT232B_MICROTEST,47543233-3242-45f4-9d49-43524f544553,rev?*%
%TF.SameCoordinates,Original*%
%TF.FileFunction,Paste,Top*%
%TF.FilePolarity,Positive*%
%FSLAX46Y46*%
G04 Gerber Fmt 4.6, Leading zero omitted, Abs format (unit mm)*
G04 Created by KiCad (PCBNEW 9.0.1) date 2025-04-23 14:59:06*
%MOMM*%
%LPD*%
G01*
G04 APERTURE LIST*
G04 Aperture macros list*
%AMRoundRect*
0 Rectangle with rounded corners*
0 $1 Rounding radius*
0 $2 $3 $4 $5 $6 $7 $8 $9 X,Y pos of 4 corners*
0 Add a 4 corners polygon primitive as box body*
4,1,4,$2,$3,$4,$5,$6,$7,$8,$9,$2,$3,0*
0 Add four circle primitives for the rounded corners*
1,1,$1+$1,$2,$3*
1,1,$1+$1,$4,$5*
1,1,$1+$1,$6,$7*
1,1,$1+$1,$8,$9*
0 Add four rect primitives between the rounded corners*
20,1,$1+$1,$2,$3,$4,$5,0*
20,1,$1+$1,$4,$5,$6,$7,0*
20,1,$1+$1,$6,$7,$8,$9,0*
20,1,$1+$1,$8,$9,$2,$3,0*%
G04 Aperture macros list end*
%ADD10RoundRect,0.250000X1.100000X-0.412500X1.100000X0.412500X-1.100000X0.412500X-1.100000X-0.412500X0*%
%ADD11RoundRect,0.150000X0.825000X0.150000X-0.825000X0.150000X-0.825000X-0.150000X0.825000X-0.150000X0*%
%ADD12R,2.000000X2.800000*%
%ADD13RoundRect,0.237500X-0.237500X0.250000X-0.237500X-0.250000X0.237500X-0.250000X0.237500X0.250000X0*%
%ADD14RoundRect,0.237500X-0.250000X-0.237500X0.250000X-0.237500X0.250000X0.237500X-0.250000X0.237500X0*%
%ADD15RoundRect,0.250000X0.475000X-0.337500X0.475000X0.337500X-0.475000X0.337500X-0.475000X-0.337500X0*%
%ADD16RoundRect,0.237500X-0.237500X0.300000X-0.237500X-0.300000X0.237500X-0.300000X0.237500X0.300000X0*%
%ADD17RoundRect,0.250000X-0.412500X-1.100000X0.412500X-1.100000X0.412500X1.100000X-0.412500X1.100000X0*%
%ADD18RoundRect,0.250000X-0.412500X-0.650000X0.412500X-0.650000X0.412500X0.650000X-0.412500X0.650000X0*%
%ADD19RoundRect,0.237500X0.237500X-0.250000X0.237500X0.250000X-0.237500X0.250000X-0.237500X-0.250000X0*%
%ADD20RoundRect,0.237500X0.250000X0.237500X-0.250000X0.237500X-0.250000X-0.237500X0.250000X-0.237500X0*%
%ADD21RoundRect,0.150000X0.512500X0.150000X-0.512500X0.150000X-0.512500X-0.150000X0.512500X-0.150000X0*%
G04 APERTURE END LIST*
D10*
%TO.C,C1*%
X128593800Y-107750800D03*
X128593800Y-110875800D03*
%TD*%
D11*
%TO.C,U2*%
X143263800Y-107408300D03*
X143263800Y-106138300D03*
X143263800Y-104868300D03*
X143263800Y-103598300D03*
X143263800Y-102328300D03*
X143263800Y-101058300D03*
X143263800Y-99788300D03*
X148213800Y-99788300D03*
X148213800Y-101058300D03*
X148213800Y-102328300D03*
X148213800Y-103598300D03*
X148213800Y-104868300D03*
X148213800Y-106138300D03*
X148213800Y-107408300D03*
%TD*%
D12*
%TO.C,L1*%
X140531800Y-109313300D03*
X136975800Y-109313300D03*
%TD*%
D13*
%TO.C,R4*%
X136848800Y-103955800D03*
X136848800Y-105780800D03*
%TD*%
D14*
%TO.C,R5*%
X138476300Y-106138300D03*
X140301300Y-106138300D03*
%TD*%
D15*
%TO.C,C2*%
X131768800Y-110350800D03*
X131768800Y-108275800D03*
%TD*%
D16*
%TO.C,C3*%
X134943800Y-105910800D03*
X134943800Y-107635800D03*
%TD*%
D17*
%TO.C,C4*%
X136556300Y-101058300D03*
X139681300Y-101058300D03*
%TD*%
D18*
%TO.C,C5*%
X144176300Y-109948300D03*
X147301300Y-109948300D03*
%TD*%
D19*
%TO.C,R1*%
X129228800Y-105780800D03*
X129228800Y-103955800D03*
%TD*%
D13*
%TO.C,R2*%
X129228800Y-100145800D03*
X129228800Y-101970800D03*
%TD*%
D20*
%TO.C,R3*%
X134586300Y-99788300D03*
X132761300Y-99788300D03*
%TD*%
D21*
%TO.C,U1*%
X134811300Y-103913300D03*
X134811300Y-102963300D03*
X134811300Y-102013300D03*
X132536300Y-102013300D03*
X132536300Y-102963300D03*
X132536300Y-103913300D03*
%TD*%
M02*
